<svg width="38" height="31" viewBox="0 0 38 31" fill="none" xmlns="http://www.w3.org/2000/svg">
<path d="M32.3 0H5.7C4.18827 0 2.73845 0.600534 1.66949 1.66949C0.600534 2.73845 0 4.18827 0 5.7V24.7C0 26.2117 0.600534 27.6615 1.66949 28.7305C2.73845 29.7995 4.18827 30.4 5.7 30.4H32.3C33.8117 30.4 35.2616 29.7995 36.3305 28.7305C37.3995 27.6615 38 26.2117 38 24.7V5.7C38 4.18827 37.3995 2.73845 36.3305 1.66949C35.2616 0.600534 33.8117 0 32.3 0V0ZM31.027 3.8L19 12.825L6.973 3.8H31.027ZM32.3 26.6H5.7C5.19609 26.6 4.71282 26.3998 4.3565 26.0435C4.00018 25.6872 3.8 25.2039 3.8 24.7V6.175L17.86 16.72C18.1889 16.9667 18.5889 17.1 19 17.1C19.4111 17.1 19.8111 16.9667 20.14 16.72L34.2 6.175V24.7C34.2 25.2039 33.9998 25.6872 33.6435 26.0435C33.2872 26.3998 32.8039 26.6 32.3 26.6Z" fill="white"/>
</svg>
