<svg width="615" height="554" viewBox="0 0 615 554" fill="none" xmlns="http://www.w3.org/2000/svg">
<path style="mix-blend-mode:screen" d="M355.636 367.877L406.589 341.691L491.786 386.108L440.41 412.875L355.636 367.868V367.877Z" fill="url(#paint0_linear_3_196)"/>
<path style="mix-blend-mode:screen" d="M440.843 412.875V421.991L355.637 377.377V367.868L440.843 412.875Z" fill="url(#paint1_linear_3_196)"/>
<path style="mix-blend-mode:screen" d="M440.843 421.991V412.875L491.795 386.108V395.028L440.843 421.991Z" fill="url(#paint2_linear_3_196)"/>
<path style="mix-blend-mode:screen" d="M611.59 413.62L601.187 419.103C602.65 418.333 603.562 416.689 603.562 414.365L613.965 408.89C613.956 411.222 613.053 412.859 611.59 413.628V413.62Z" fill="url(#paint3_linear_3_196)"/>
<g style="mix-blend-mode:screen">
<path style="mix-blend-mode:screen" d="M297.189 5.97175L307.592 0.49727C309.073 -0.280122 311.123 -0.173738 313.39 1.01281L302.987 6.48727C300.72 5.30073 298.67 5.19436 297.189 5.97175Z" fill="url(#paint4_linear_3_196)"/>
</g>
<path style="mix-blend-mode:screen" d="M614.598 167.612L613.965 408.882L603.562 414.365L604.194 173.095L614.598 167.62V167.612Z" fill="url(#paint5_linear_3_196)"/>
<g style="mix-blend-mode:screen">
<path style="mix-blend-mode:screen" d="M302.987 6.48741L313.39 1.01294L606.47 154.863L596.066 160.337L302.987 6.48741Z" fill="url(#paint6_linear_3_196)"/>
</g>
<path style="mix-blend-mode:screen" d="M603.336 173.086L602.704 414.356C602.695 416.967 601.449 418.53 599.362 418.53C598.441 418.53 597.385 418.227 596.292 417.662L303.212 263.812C299.04 261.636 295.662 256.325 295.68 251.988L296.313 10.7178C296.322 8.10739 297.568 6.54443 299.654 6.54443C300.575 6.54443 301.632 6.84721 302.725 7.41184L595.804 161.262C599.976 163.447 603.354 168.749 603.345 173.086H603.336Z" fill="url(#paint7_linear_3_196)"/>
<path style="mix-blend-mode:screen" d="M586.484 177.325L585.925 392.68C585.916 395.012 584.805 396.403 582.944 396.403C582.123 396.403 581.174 396.133 580.208 395.625L318.61 258.305C314.889 256.358 311.873 251.628 311.882 247.749L312.442 32.3949C312.451 30.0628 313.562 28.6716 315.422 28.6716C316.244 28.6716 317.192 28.9417 318.159 29.449L579.756 166.769C583.477 168.717 586.494 173.455 586.484 177.325Z" fill="url(#paint8_linear_3_196)"/>
<g style="mix-blend-mode:screen">
<path style="mix-blend-mode:screen" d="M596.066 160.329L606.47 154.855C610.976 157.211 614.616 162.923 614.598 167.612L604.194 173.087C604.212 168.398 600.573 162.686 596.066 160.329Z" fill="url(#paint9_linear_3_196)"/>
</g>
<path style="mix-blend-mode:screen" fill-rule="evenodd" clip-rule="evenodd" d="M604.194 173.087L603.562 414.356C603.544 419.045 599.886 420.936 595.38 418.579L302.3 264.729C297.803 262.372 294.163 256.669 294.172 251.971L294.805 10.7015C294.823 6.01261 298.48 4.12232 302.977 6.47904L596.057 160.329C600.563 162.686 604.203 168.398 604.185 173.087H604.194ZM603.011 173.087C603.02 168.75 599.642 163.439 595.47 161.262L302.391 7.41191C301.307 6.84728 300.241 6.54451 299.32 6.54451C297.234 6.54451 295.988 8.10747 295.979 10.7179L295.346 251.988C295.337 256.325 298.715 261.636 302.878 263.812L595.958 417.662C597.05 418.235 598.107 418.53 599.028 418.53C601.114 418.53 602.361 416.967 602.37 414.356L603.002 173.087H603.011Z" fill="url(#paint10_linear_3_196)"/>
<path style="mix-blend-mode:screen" d="M441.692 337.616V395.372L394.171 371.322C394.171 333.082 394.171 313.696 394.171 313.181L441.692 337.624V337.616Z" fill="url(#paint11_linear_3_196)"/>
<path style="mix-blend-mode:screen" d="M441.692 337.616V395.372L394.171 371.322C394.171 333.082 394.171 313.696 394.171 313.181L441.692 337.624V337.616Z" fill="url(#paint12_linear_3_196)"/>
<path style="mix-blend-mode:screen" d="M441.692 337.714L452.61 343.532V389.161L441.692 395.372V337.714Z" fill="url(#paint13_linear_3_196)"/>
<path style="mix-blend-mode:screen" d="M394.027 313.656L404.945 319.474V365.103L394.027 371.314V313.656Z" fill="url(#paint14_linear_3_196)"/>
<path style="mix-blend-mode:screen" d="M423.431 240.147L423.223 269.041C423.223 269.901 422.808 270.416 422.122 270.416C421.815 270.416 421.472 270.318 421.11 270.13L324.516 219.427C323.143 218.707 322.032 216.964 322.032 215.532L322.24 186.638C322.24 185.778 322.655 185.263 323.342 185.263C323.649 185.263 323.992 185.361 324.353 185.549L420.948 236.252C422.32 236.972 423.44 238.723 423.431 240.147Z" fill="url(#paint15_linear_3_196)"/>
<path d="M432.336 234.288L432.128 263.182C432.128 263.952 431.83 264.492 431.342 264.745L422.718 270.596C423.196 270.343 423.503 269.802 423.503 269.033L423.711 240.139C423.72 238.592 422.519 236.71 421.029 235.933L324.435 185.23C323.685 184.837 323.008 184.805 322.52 185.058L331.145 179.208C331.632 178.954 332.309 178.987 333.059 179.379L429.653 230.082C431.134 230.859 432.336 232.741 432.336 234.288Z" fill="url(#paint16_linear_3_196)"/>
<path style="mix-blend-mode:screen" d="M430.602 134.593L430.394 214.108C430.394 214.967 429.978 215.483 429.292 215.483C428.985 215.483 428.642 215.385 428.281 215.196L331.686 164.494C330.314 163.774 329.203 162.031 329.203 160.599L329.411 81.084C329.411 80.2248 329.826 79.7092 330.512 79.7092C330.819 79.7092 331.163 79.8074 331.524 79.9956L428.118 130.698C429.491 131.418 430.611 133.169 430.602 134.593Z" fill="url(#paint17_linear_3_196)"/>
<path d="M439.506 128.742L439.298 208.257C439.298 209.027 439 209.567 438.513 209.82L429.888 215.671C430.367 215.418 430.674 214.877 430.674 214.108L430.882 134.593C430.891 133.047 429.69 131.165 428.2 130.387L331.605 79.6847C330.856 79.292 330.178 79.2592 329.691 79.5129L338.315 73.6538C338.803 73.4001 339.48 73.4329 340.23 73.8257L436.824 124.528C438.305 125.305 439.506 127.188 439.506 128.734V128.742Z" fill="url(#paint18_linear_3_196)"/>
<path style="mix-blend-mode:screen" d="M414.184 139.086V154.396L401.306 147.653V182.972L361.136 161.957V126.639L348.258 119.896V104.586L361.136 111.329L371.666 116.836C372.587 121.926 376.516 127.441 381.221 129.904C385.926 132.367 389.854 130.96 390.775 126.836L401.306 132.343L414.184 139.086Z" fill="url(#paint19_linear_3_196)"/>
<path style="mix-blend-mode:screen" d="M567.673 201.678L567.005 455.984C566.996 458.733 565.677 460.378 563.482 460.378C562.516 460.378 561.396 460.059 560.249 459.461L456.846 405.363C452.457 403.064 448.889 397.475 448.908 392.9L449.576 138.595C449.585 135.845 450.903 134.2 453.098 134.2C454.064 134.2 455.184 134.52 456.331 135.117L559.735 189.215C564.133 191.515 567.691 197.104 567.682 201.678H567.673Z" fill="url(#paint20_linear_3_196)"/>
<path style="mix-blend-mode:screen" d="M567.673 201.678L567.005 455.984C566.996 458.733 565.677 460.378 563.482 460.378C562.516 460.378 561.396 460.059 560.249 459.461L456.846 405.363C452.457 403.064 448.889 397.475 448.908 392.9L449.576 138.595C449.585 135.845 450.903 134.2 453.098 134.2C454.064 134.2 455.184 134.52 456.331 135.117L559.735 189.215C564.133 191.515 567.691 197.104 567.682 201.678H567.673Z" fill="url(#paint21_linear_3_196)"/>
<path style="mix-blend-mode:screen" d="M540.951 248.903V266.554L463.881 226.399V209.526L540.951 248.903Z" fill="url(#paint22_linear_3_196)"/>
<path style="mix-blend-mode:screen" d="M540.951 275.088V292.739L463.881 252.585V235.711L540.951 275.088Z" fill="url(#paint23_linear_3_196)"/>
<path style="mix-blend-mode:screen" d="M540.951 301.274V318.925L463.881 278.771V261.897L540.951 301.274Z" fill="url(#paint24_linear_3_196)"/>
<path style="mix-blend-mode:screen" d="M540.951 241.399V244.827L505.631 226.334L505.848 223.42L540.951 241.399Z" fill="url(#paint25_linear_3_196)"/>
<path style="mix-blend-mode:screen" opacity="0.6" d="M540.951 411.844V415.273L505.631 396.779L505.848 393.866L540.951 411.844Z" fill="url(#paint26_linear_3_196)"/>
<path style="mix-blend-mode:screen" opacity="0.6" d="M499.273 391.411V394.84L463.953 376.346L464.17 373.433L499.273 391.411Z" fill="url(#paint27_linear_3_196)"/>
<path style="mix-blend-mode:screen" d="M540.951 328.041V337.55L463.881 297.395V288.664L540.951 328.041Z" fill="url(#paint28_linear_3_196)"/>
<path style="mix-blend-mode:screen" d="M540.951 345.504V355.013L463.881 314.858V306.127L540.951 345.504Z" fill="url(#paint29_linear_3_196)"/>
<path style="mix-blend-mode:screen" opacity="0.6" d="M540.951 422.318V431.827L463.881 391.673V382.941L540.951 422.318Z" fill="url(#paint30_linear_3_196)"/>
<path style="mix-blend-mode:screen" d="M404.945 365.111L452.61 389.161L441.692 395.372L394.027 371.322L404.945 365.111Z" fill="url(#paint31_linear_3_196)"/>
<path style="mix-blend-mode:screen" d="M68.4272 283.117L155.395 236.596L150.112 350.512L68.1111 393.76C68.3278 320.219 68.4362 283.346 68.4362 283.125L68.4272 283.117Z" fill="url(#paint32_linear_3_196)"/>
<path style="mix-blend-mode:screen" d="M86.7239 413.178V295.866L178.062 246.562L174.64 363.949C115.451 396.771 86.1459 413.178 86.7329 413.178H86.7239Z" fill="url(#paint33_linear_3_196)"/>
<path style="mix-blend-mode:screen" d="M68.1021 393.751L68.4272 283.116L80.8176 284.303L78.4786 395.192L68.1021 393.743V393.751Z" fill="url(#paint34_linear_3_196)"/>
<path style="mix-blend-mode:screen" d="M80.9622 284.172L86.4981 296.062V413.374L78.6232 395.061C80.1765 321.307 80.9622 284.344 80.9622 284.172Z" fill="url(#paint35_linear_3_196)"/>
<path style="mix-blend-mode:screen" d="M155.386 236.587L178.062 246.563L174.64 363.949L150.112 350.504C153.2 274.557 154.961 236.587 155.395 236.587H155.386Z" fill="url(#paint36_linear_3_196)"/>
<g style="mix-blend-mode:screen">
<path d="M102.483 271.979V246.162C102.483 244.721 103.323 243.396 104.686 242.667L119.967 234.509C121.646 233.609 123.769 234.713 123.769 236.473V262.732" stroke="black" stroke-width="1.9"/>
</g>
<g style="mix-blend-mode:screen">
<path d="M117.131 285.252V259.435C117.131 257.994 117.971 256.669 119.335 255.94L134.615 247.782C136.294 246.882 138.417 247.986 138.417 249.746V276.005" stroke="black" stroke-width="1.9"/>
</g>
<path style="mix-blend-mode:screen" d="M112.335 458.594L185.07 419.732L225.899 440.403L152.821 479.575L112.335 458.594Z" fill="url(#paint37_linear_3_196)"/>
<path d="M184.89 420.044V369.84L225.89 391.444V440.403L184.89 420.044Z" fill="url(#paint38_linear_3_196)"/>
<path style="mix-blend-mode:screen" d="M111.992 408.391L184.899 369.84V420.044L112.507 458.439C112.507 458.75 112.335 442.064 111.992 408.391Z" fill="url(#paint39_linear_3_196)"/>
<path style="mix-blend-mode:screen" d="M124.058 464.969V414.921L137.324 422.122V471.703C137.098 471.499 132.673 469.248 124.058 464.969Z" fill="url(#paint40_linear_3_196)"/>
<path style="mix-blend-mode:screen" d="M225.89 440.403L152.812 479.265V429.683L225.89 391.444V440.403Z" fill="url(#paint41_linear_3_196)"/>
<path style="mix-blend-mode:screen" d="M195.582 456.884L181.973 464.24L181.63 414.864L195.357 407.769L195.582 456.884Z" fill="url(#paint42_linear_3_196)"/>
<path style="mix-blend-mode:screen" d="M184.89 369.84L225.89 391.444L152.64 430.15L111.64 408.702L184.89 369.84Z" fill="url(#paint43_linear_3_196)"/>
<path style="mix-blend-mode:screen" d="M198.671 377.353L212.055 383.981L137.721 422.531L124.283 415.486L198.671 377.353Z" fill="url(#paint44_linear_3_196)"/>
<path style="mix-blend-mode:screen" d="M154.591 386.108L195.591 407.712L181.521 414.962L140.521 393.514L154.591 386.108Z" fill="url(#paint45_linear_3_196)"/>
<path style="mix-blend-mode:screen" d="M188.475 389.619L267.856 347.616L336.807 382.533L256.848 425.06L188.475 389.619Z" fill="url(#paint46_linear_3_196)"/>
<path d="M267.568 348.139V263.346L336.807 299.835V382.533L267.568 348.139Z" fill="url(#paint47_linear_3_196)"/>
<path style="mix-blend-mode:screen" d="M187.599 305.088L267.558 263.346V348.139L188.466 389.619C188.466 390.143 188.177 361.969 187.599 305.088Z" fill="url(#paint48_linear_3_196)"/>
<path style="mix-blend-mode:screen" d="M211.458 401.698V317.167L233.864 329.327V413.072C233.476 412.72 226.007 408.932 211.458 401.698Z" fill="url(#paint49_linear_3_196)"/>
<path style="mix-blend-mode:screen" d="M336.807 382.533L256.848 425.06V341.315L336.807 299.835V382.533Z" fill="url(#paint50_linear_3_196)"/>
<path style="mix-blend-mode:screen" d="M308.224 397.754L285.241 410.184L284.663 326.79L307.836 314.802L308.224 397.762V397.754Z" fill="url(#paint51_linear_3_196)"/>
<path style="mix-blend-mode:screen" d="M267.568 263.346L336.807 299.835L256.848 341.315L187.608 305.088L267.568 263.346Z" fill="url(#paint52_linear_3_196)"/>
<path style="mix-blend-mode:screen" d="M290.84 276.03L313.435 287.233L233.954 329.326L211.26 317.428L290.84 276.038V276.03Z" fill="url(#paint53_linear_3_196)"/>
<path style="mix-blend-mode:screen" d="M238.976 278.223L308.216 314.711L284.455 326.962L215.215 290.735L238.976 278.223Z" fill="url(#paint54_linear_3_196)"/>
<path style="mix-blend-mode:screen" d="M259.132 493.069V547.364L213.553 523.15V468.316L259.132 493.061V493.069Z" fill="url(#paint55_linear_3_196)"/>
<path style="mix-blend-mode:screen" d="M308.748 476.581L310.356 525.745L254.129 494.821V446.852L308.748 476.581Z" fill="url(#paint56_linear_3_196)"/>
<path style="mix-blend-mode:screen" d="M213.553 468.324L250.878 448.742L298.615 473.839L259.123 493.069L213.544 468.324H213.553Z" fill="url(#paint57_linear_3_196)"/>
<path style="mix-blend-mode:screen" d="M259.132 493.07L298.625 473.839V526.89L259.132 547.364V493.07Z" fill="url(#paint58_linear_3_196)"/>
<path style="mix-blend-mode:screen" d="M410.318 422.818L411.059 472.931L310.356 525.745L308.748 476.581L410.318 422.818Z" fill="url(#paint59_linear_3_196)"/>
<path style="mix-blend-mode:screen" d="M258.753 547.168V552.929L213.246 529.075V523.012L258.753 547.168Z" fill="url(#paint60_linear_3_196)"/>
<path style="mix-blend-mode:screen" d="M258.87 547.275L298.462 526.964L298.688 533.331L258.762 552.938L258.87 547.275Z" fill="url(#paint61_linear_3_196)"/>
<path style="mix-blend-mode:screen" d="M252.495 501.064L252.422 529.812C252.422 530.123 252.269 530.311 252.025 530.311C251.917 530.311 251.79 530.278 251.655 530.204L216.732 511.874C216.236 511.612 215.829 510.982 215.838 510.467L215.911 481.72C215.911 481.409 216.064 481.22 216.308 481.22C216.416 481.22 216.543 481.253 216.669 481.327L251.592 499.657C252.088 499.919 252.495 500.549 252.486 501.064H252.495Z" fill="url(#paint62_linear_3_196)"/>
<path d="M255.71 498.953L255.637 527.7C255.637 527.979 255.529 528.175 255.357 528.265L252.242 530.385C252.413 530.295 252.522 530.098 252.522 529.82L252.594 501.073C252.594 500.516 252.161 499.837 251.628 499.551L216.705 481.221C216.434 481.081 216.191 481.065 216.019 481.155L219.135 479.036C219.315 478.946 219.559 478.954 219.821 479.093L254.743 497.423C255.276 497.701 255.71 498.38 255.71 498.945V498.953Z" fill="url(#paint63_linear_3_196)"/>
<path style="mix-blend-mode:screen" d="M265.779 503.135L265.734 520.614C265.734 520.802 265.644 520.917 265.49 520.917C265.427 520.917 265.346 520.892 265.264 520.851L261.76 518.994C261.462 518.838 261.209 518.453 261.218 518.134L261.264 500.655C261.264 500.467 261.354 500.353 261.507 500.353C261.571 500.353 261.652 500.377 261.733 500.418L265.237 502.276C265.535 502.431 265.788 502.816 265.779 503.135Z" fill="url(#paint64_linear_3_196)"/>
<path d="M267.739 501.85L267.693 519.329C267.693 519.501 267.63 519.615 267.522 519.673L265.625 520.957C265.734 520.9 265.797 520.786 265.797 520.614L265.842 503.135C265.842 502.791 265.58 502.382 265.255 502.21L261.751 500.352C261.589 500.271 261.435 500.262 261.327 500.312L263.223 499.027C263.332 498.97 263.476 498.978 263.648 499.068L267.152 500.925C267.477 501.097 267.739 501.506 267.739 501.85Z" fill="url(#paint65_linear_3_196)"/>
<path style="mix-blend-mode:screen" d="M411.068 472.931L353.939 442.334L355.131 394.226L410.328 422.818L411.068 472.931Z" fill="url(#paint66_linear_3_196)"/>
<path style="mix-blend-mode:screen" d="M353.785 442.604L253.849 494.755V446.851L354.977 394.496L353.785 442.604Z" fill="url(#paint67_linear_3_196)"/>
<path style="mix-blend-mode:screen" d="M354.083 442.465L411.483 472.784L310.355 525.605L253.84 494.616L354.074 442.465H354.083Z" fill="url(#paint68_linear_3_196)"/>
<path style="mix-blend-mode:screen" d="M354.977 394.365L410.472 422.818L308.901 476.581L254.003 446.852L354.977 394.365Z" fill="url(#paint69_linear_3_196)"/>
<g style="mix-blend-mode:screen">
<path style="mix-blend-mode:screen" d="M396.086 475.451C403.193 474.575 408.955 479.33 408.946 486.089C408.928 492.848 403.139 499.027 396.032 499.91C388.915 500.794 383.162 496.032 383.172 489.272C383.19 482.513 388.96 476.335 396.086 475.451Z" fill="url(#paint70_linear_3_196)"/>
</g>
<path style="mix-blend-mode:screen" d="M383.244 488.02C383.199 488.438 383.181 488.847 383.172 489.272C383.162 493.626 385.547 497.145 389.141 498.871L384.896 496.842C381.293 495.123 378.918 491.596 378.927 487.243C378.927 486.826 378.954 486.408 378.999 485.991C379.017 485.852 379.044 485.721 379.062 485.582C379.099 485.304 379.135 485.025 379.198 484.755C379.234 484.592 379.279 484.436 379.324 484.281C379.388 484.035 379.442 483.79 379.514 483.552C379.568 483.381 379.64 483.209 379.704 483.037C379.776 482.832 379.848 482.62 379.929 482.415C379.929 482.407 379.938 482.399 379.938 482.39C380.182 481.801 380.48 481.237 380.805 480.688C380.842 480.631 380.86 480.566 380.896 480.508C380.923 480.459 380.968 480.418 380.995 480.369C381.284 479.911 381.582 479.469 381.925 479.044C381.934 479.035 381.943 479.019 381.943 479.011C381.979 478.962 382.025 478.929 382.061 478.88C382.341 478.528 382.648 478.201 382.964 477.873C383.009 477.824 383.054 477.767 383.099 477.718C383.163 477.661 383.226 477.603 383.289 477.546C383.587 477.26 383.885 476.99 384.21 476.728C384.282 476.67 384.346 476.605 384.418 476.548C384.445 476.523 384.472 476.507 384.499 476.49C384.933 476.147 385.393 475.836 385.863 475.541C385.899 475.517 385.935 475.492 385.971 475.468C386.025 475.435 386.089 475.41 386.143 475.386C386.757 475.026 387.389 474.698 388.048 474.42C388.057 474.42 388.066 474.412 388.066 474.412C388.102 474.396 388.139 474.387 388.175 474.379C388.662 474.183 389.168 474.011 389.683 473.872C389.827 473.831 389.972 473.79 390.116 473.757C390.676 473.618 391.254 473.495 391.832 473.422C392.401 473.348 392.952 473.332 393.503 473.332C393.611 473.332 393.729 473.332 393.837 473.332C394.361 473.348 394.876 473.389 395.381 473.463C395.472 473.479 395.562 473.495 395.652 473.512C395.86 473.545 396.077 473.577 396.284 473.626C396.528 473.684 396.763 473.749 396.998 473.823C397.07 473.847 397.151 473.864 397.224 473.888C397.603 474.003 397.973 474.142 398.325 474.297C398.461 474.355 398.587 474.412 398.723 474.477L402.967 476.507C402.489 476.278 401.992 476.089 401.468 475.926C401.396 475.901 401.324 475.885 401.242 475.869C400.809 475.738 400.357 475.639 399.897 475.558C399.807 475.541 399.725 475.525 399.635 475.508C399.129 475.435 398.614 475.394 398.091 475.378C397.982 475.378 397.865 475.378 397.756 475.378C397.206 475.378 396.655 475.402 396.086 475.468C395.499 475.541 394.93 475.664 394.37 475.803C394.225 475.836 394.081 475.877 393.936 475.918C393.422 476.065 392.916 476.229 392.419 476.433C392.374 476.45 392.338 476.466 392.293 476.482C391.634 476.76 391.001 477.088 390.387 477.448C390.297 477.505 390.207 477.554 390.116 477.603C389.647 477.898 389.186 478.217 388.753 478.553C388.653 478.626 388.563 478.716 388.464 478.79C388.148 479.052 387.841 479.322 387.543 479.608C387.434 479.715 387.317 479.821 387.208 479.936C386.892 480.255 386.594 480.59 386.305 480.942C386.26 480.999 386.206 481.048 386.161 481.106C385.827 481.531 385.52 481.973 385.231 482.431C385.167 482.538 385.104 482.644 385.041 482.751C384.716 483.299 384.418 483.863 384.174 484.453C384.084 484.665 384.011 484.886 383.93 485.107C383.867 485.279 383.804 485.443 383.75 485.615C383.677 485.852 383.623 486.089 383.56 486.327C383.515 486.49 383.47 486.654 383.433 486.817C383.379 487.088 383.343 487.358 383.307 487.628C383.289 487.767 383.253 487.906 383.244 488.045V488.02Z" fill="url(#paint71_linear_3_196)"/>
<g opacity="0.4">
<g style="mix-blend-mode:screen" opacity="0.4">
<path style="mix-blend-mode:screen" opacity="0.4" d="M334.522 443.914C341.629 443.038 347.391 447.792 347.382 454.552C347.364 461.311 341.575 467.489 334.468 468.373C327.352 469.249 321.599 464.494 321.608 457.735C321.626 450.976 327.397 444.797 334.522 443.914Z" fill="url(#paint72_linear_3_196)"/>
</g>
<path style="mix-blend-mode:screen" opacity="0.4" d="M321.68 456.483C321.635 456.9 321.617 457.309 321.608 457.735C321.599 462.088 323.983 465.607 327.577 467.334L323.333 465.304C319.73 463.586 317.355 460.059 317.364 455.705C317.364 455.288 317.391 454.871 317.436 454.453C317.454 454.314 317.481 454.183 317.499 454.044C317.535 453.766 317.571 453.488 317.634 453.218C317.671 453.054 317.716 452.899 317.761 452.743C317.824 452.498 317.878 452.252 317.951 452.015C318.005 451.843 318.077 451.671 318.14 451.499C318.212 451.295 318.285 451.082 318.366 450.877C318.366 450.869 318.375 450.861 318.375 450.853C318.619 450.264 318.917 449.699 319.242 449.151C319.278 449.094 319.296 449.028 319.332 448.971C319.359 448.922 319.405 448.881 319.432 448.832C319.721 448.373 320.019 447.932 320.362 447.506C320.371 447.498 320.38 447.481 320.38 447.473C320.416 447.424 320.461 447.391 320.497 447.342C320.786 446.99 321.084 446.663 321.4 446.336C321.446 446.287 321.491 446.229 321.536 446.18C321.599 446.123 321.662 446.066 321.725 446.008C322.024 445.722 322.322 445.452 322.647 445.19C322.719 445.133 322.782 445.067 322.854 445.01C322.881 444.986 322.909 444.969 322.936 444.953C323.369 444.609 323.83 444.298 324.299 444.004C324.335 443.979 324.372 443.955 324.408 443.93C324.462 443.897 324.525 443.873 324.579 443.848C325.193 443.488 325.826 443.161 326.485 442.883C326.494 442.883 326.503 442.874 326.503 442.874C326.539 442.858 326.575 442.85 326.611 442.842C327.099 442.645 327.605 442.473 328.119 442.334C328.264 442.293 328.408 442.252 328.553 442.22C329.113 442.081 329.691 441.958 330.269 441.884C330.838 441.811 331.389 441.794 331.939 441.794C332.048 441.794 332.165 441.794 332.274 441.794C332.797 441.811 333.312 441.851 333.818 441.925C333.908 441.942 333.998 441.958 334.089 441.974C334.297 442.007 334.513 442.04 334.721 442.089C334.965 442.146 335.2 442.212 335.434 442.285C335.507 442.31 335.588 442.326 335.66 442.351C336.039 442.465 336.41 442.604 336.762 442.76C336.897 442.817 337.024 442.874 337.159 442.94L341.404 444.969C340.925 444.74 340.428 444.552 339.905 444.388C339.832 444.364 339.76 444.347 339.679 444.331C339.245 444.2 338.794 444.102 338.333 444.02C338.243 444.004 338.162 443.987 338.071 443.971C337.566 443.897 337.051 443.856 336.527 443.84C336.419 443.84 336.301 443.84 336.193 443.84C335.642 443.84 335.091 443.865 334.522 443.93C333.935 444.004 333.366 444.126 332.806 444.265C332.662 444.298 332.517 444.339 332.373 444.38C331.858 444.527 331.352 444.691 330.856 444.896C330.811 444.912 330.774 444.928 330.729 444.945C330.07 445.223 329.438 445.55 328.824 445.91C328.733 445.968 328.643 446.017 328.553 446.066C328.083 446.36 327.623 446.679 327.189 447.015C327.09 447.089 327 447.179 326.9 447.252C326.584 447.514 326.277 447.784 325.979 448.071C325.871 448.177 325.753 448.283 325.645 448.398C325.329 448.717 325.031 449.053 324.742 449.404C324.697 449.462 324.642 449.511 324.597 449.568C324.263 449.994 323.956 450.436 323.667 450.894C323.604 451 323.541 451.107 323.477 451.213C323.152 451.761 322.854 452.326 322.611 452.915C322.52 453.128 322.448 453.349 322.367 453.57C322.303 453.741 322.24 453.905 322.186 454.077C322.114 454.314 322.06 454.552 321.996 454.789C321.951 454.953 321.906 455.116 321.87 455.28C321.816 455.55 321.78 455.82 321.744 456.09C321.726 456.229 321.689 456.368 321.68 456.507V456.483Z" fill="url(#paint73_linear_3_196)"/>
</g>
<g opacity="0.4">
<g style="mix-blend-mode:screen" opacity="0.4">
<path style="mix-blend-mode:screen" opacity="0.4" d="M239.346 497.006C246.453 496.13 252.215 500.885 252.206 507.644C252.188 514.403 246.399 520.581 239.291 521.465C232.175 522.349 226.422 517.586 226.431 510.827C226.449 504.068 232.22 497.89 239.346 497.006Z" fill="url(#paint74_linear_3_196)"/>
</g>
<path style="mix-blend-mode:screen" opacity="0.4" d="M226.504 509.575C226.459 509.992 226.431 510.401 226.431 510.827C226.422 515.18 228.807 518.699 232.401 520.426L228.156 518.396C224.553 516.678 222.178 513.151 222.187 508.797C222.187 508.38 222.214 507.963 222.259 507.545C222.277 507.406 222.304 507.275 222.322 507.136C222.358 506.858 222.395 506.58 222.458 506.31C222.494 506.146 222.539 505.991 222.584 505.835C222.647 505.59 222.702 505.344 222.774 505.107C222.828 504.935 222.9 504.763 222.964 504.591C223.036 504.387 223.108 504.174 223.189 503.969C223.189 503.961 223.198 503.953 223.198 503.945C223.442 503.356 223.74 502.791 224.065 502.243C224.101 502.186 224.12 502.12 224.156 502.063C224.183 502.014 224.228 501.973 224.255 501.924C224.544 501.465 224.851 501.024 225.185 500.598C225.194 500.59 225.203 500.573 225.203 500.565C225.239 500.516 225.284 500.483 225.321 500.434C225.61 500.083 225.908 499.755 226.224 499.428C226.269 499.379 226.314 499.321 226.368 499.272C226.431 499.215 226.495 499.158 226.558 499.101C226.856 498.814 227.154 498.544 227.479 498.282C227.551 498.225 227.614 498.16 227.687 498.102C227.714 498.078 227.741 498.061 227.768 498.045C228.201 497.701 228.662 497.39 229.132 497.096C229.168 497.071 229.204 497.047 229.24 497.022C229.294 496.989 229.357 496.965 229.412 496.94C230.026 496.58 230.658 496.253 231.317 495.975C231.326 495.975 231.335 495.966 231.335 495.966C231.371 495.95 231.407 495.942 231.444 495.934C231.931 495.737 232.437 495.565 232.952 495.426C233.096 495.385 233.241 495.344 233.385 495.312C233.945 495.173 234.523 495.05 235.101 494.976C235.67 494.903 236.221 494.886 236.772 494.886C236.88 494.886 236.998 494.886 237.106 494.886C237.63 494.903 238.144 494.944 238.65 495.017C238.741 495.034 238.831 495.05 238.921 495.066C239.129 495.099 239.346 495.132 239.553 495.181C239.797 495.238 240.032 495.304 240.267 495.377C240.339 495.402 240.42 495.418 240.493 495.443C240.872 495.557 241.242 495.696 241.594 495.852C241.73 495.909 241.856 495.966 241.992 496.032L246.236 498.061C245.758 497.832 245.261 497.644 244.737 497.48C244.665 497.456 244.593 497.439 244.511 497.423C244.078 497.292 243.626 497.194 243.166 497.112C243.075 497.096 242.994 497.079 242.904 497.063C242.398 496.989 241.883 496.948 241.359 496.932C241.251 496.932 241.134 496.932 241.025 496.932C240.474 496.932 239.924 496.957 239.355 497.022C238.768 497.096 238.199 497.218 237.639 497.358C237.494 497.39 237.35 497.431 237.205 497.472C236.69 497.619 236.185 497.783 235.688 497.988C235.643 498.004 235.607 498.02 235.562 498.037C234.902 498.315 234.27 498.642 233.656 499.002C233.566 499.06 233.476 499.109 233.385 499.158C232.916 499.452 232.455 499.772 232.022 500.107C231.922 500.181 231.832 500.271 231.733 500.344C231.416 500.606 231.109 500.876 230.811 501.163C230.703 501.269 230.586 501.375 230.477 501.49C230.161 501.809 229.863 502.145 229.574 502.497C229.529 502.554 229.475 502.603 229.43 502.66C229.096 503.086 228.788 503.528 228.5 503.986C228.436 504.092 228.373 504.199 228.31 504.305C227.985 504.853 227.687 505.418 227.443 506.007C227.353 506.22 227.28 506.441 227.199 506.662C227.136 506.834 227.073 506.997 227.018 507.169C226.946 507.406 226.892 507.644 226.829 507.881C226.784 508.045 226.738 508.208 226.702 508.372C226.648 508.642 226.612 508.912 226.576 509.182C226.558 509.321 226.522 509.46 226.513 509.599L226.504 509.575Z" fill="url(#paint75_linear_3_196)"/>
</g>
<g style="mix-blend-mode:screen">
<path style="mix-blend-mode:screen" d="M286.713 529.076C293.82 528.2 299.582 532.954 299.573 539.714C299.555 546.473 293.766 552.651 286.659 553.535C279.542 554.419 273.79 549.656 273.799 542.897C273.817 536.138 279.587 529.959 286.713 529.076Z" fill="url(#paint76_linear_3_196)"/>
</g>
<path style="mix-blend-mode:screen" d="M273.871 541.645C273.826 542.062 273.799 542.471 273.799 542.897C273.79 547.25 276.174 550.769 279.768 552.495L275.524 550.466C271.92 548.748 269.545 545.221 269.554 540.867C269.554 540.45 269.581 540.033 269.626 539.615C269.645 539.476 269.672 539.345 269.69 539.206C269.726 538.928 269.762 538.65 269.825 538.38C269.861 538.216 269.906 538.061 269.952 537.905C270.015 537.66 270.069 537.414 270.141 537.177C270.195 537.005 270.268 536.833 270.331 536.661C270.403 536.457 270.475 536.244 270.557 536.039C270.557 536.031 270.566 536.023 270.566 536.015C270.81 535.426 271.108 534.861 271.433 534.313C271.469 534.255 271.487 534.19 271.523 534.133C271.55 534.084 271.595 534.043 271.622 533.994C271.911 533.535 272.209 533.093 272.552 532.668C272.562 532.66 272.571 532.643 272.571 532.635C272.607 532.586 272.652 532.553 272.688 532.504C272.968 532.152 273.275 531.825 273.591 531.498C273.636 531.449 273.681 531.391 273.736 531.342C273.799 531.285 273.862 531.228 273.925 531.17C274.223 530.884 274.521 530.614 274.846 530.352C274.919 530.295 274.982 530.229 275.054 530.172C275.081 530.147 275.108 530.131 275.135 530.115C275.569 529.771 276.029 529.46 276.499 529.165C276.535 529.141 276.571 529.116 276.607 529.092C276.662 529.059 276.725 529.035 276.779 529.01C277.393 528.65 278.025 528.323 278.685 528.044C278.694 528.044 278.703 528.036 278.703 528.036C278.739 528.02 278.775 528.012 278.811 528.004C279.299 527.807 279.804 527.635 280.319 527.496C280.464 527.455 280.608 527.414 280.753 527.382C281.312 527.242 281.89 527.12 282.468 527.046C283.037 526.972 283.588 526.956 284.139 526.956C284.248 526.956 284.365 526.956 284.473 526.956C284.997 526.972 285.521 527.013 286.018 527.087C286.108 527.103 286.198 527.12 286.289 527.136C286.496 527.169 286.713 527.202 286.921 527.251C287.165 527.308 287.399 527.373 287.634 527.447C287.706 527.472 287.788 527.488 287.86 527.512C288.239 527.627 288.609 527.766 288.962 527.922C289.097 527.979 289.224 528.036 289.359 528.102L293.604 530.131C293.125 529.902 292.628 529.714 292.104 529.55C292.032 529.526 291.951 529.509 291.879 529.493C291.445 529.362 290.994 529.264 290.533 529.182C290.443 529.166 290.361 529.149 290.271 529.133C289.765 529.059 289.251 529.018 288.727 529.002C288.618 529.002 288.501 529.002 288.393 529.002C287.842 529.002 287.291 529.026 286.722 529.092C286.135 529.166 285.566 529.288 285.006 529.427C284.862 529.46 284.717 529.501 284.573 529.542C284.058 529.689 283.552 529.853 283.055 530.057C283.01 530.074 282.974 530.09 282.929 530.107C282.27 530.385 281.638 530.712 281.023 531.072C280.933 531.129 280.843 531.179 280.753 531.228C280.283 531.522 279.822 531.841 279.389 532.177C279.29 532.251 279.199 532.341 279.1 532.414C278.784 532.676 278.477 532.946 278.179 533.233C278.07 533.339 277.953 533.445 277.845 533.56C277.529 533.879 277.23 534.214 276.941 534.566C276.896 534.624 276.842 534.673 276.797 534.73C276.463 535.156 276.156 535.597 275.867 536.056C275.804 536.162 275.74 536.268 275.677 536.375C275.352 536.923 275.054 537.488 274.81 538.077C274.72 538.29 274.648 538.511 274.566 538.732C274.503 538.903 274.44 539.067 274.386 539.239C274.314 539.476 274.259 539.713 274.196 539.951C274.151 540.114 274.106 540.278 274.07 540.442C274.015 540.712 273.979 540.982 273.943 541.252C273.925 541.391 273.889 541.53 273.88 541.669L273.871 541.645Z" fill="url(#paint77_linear_3_196)"/>
<g style="mix-blend-mode:screen">
<g style="mix-blend-mode:screen">
<g style="mix-blend-mode:screen">
<path d="M561.261 251.89L572.495 257.225" stroke="black" stroke-width="1.9" stroke-linecap="round"/>
</g>
<g style="mix-blend-mode:screen">
<path d="M574.753 262.978V476.303" stroke="black" stroke-width="1.9" stroke-linecap="round"/>
</g>
<g style="mix-blend-mode:screen">
<path d="M570.319 476.368L466.084 422.76" stroke="black" stroke-width="1.9" stroke-linecap="round"/>
</g>
<g style="mix-blend-mode:screen">
<path d="M459.546 423.841L405.641 451.549" stroke="black" stroke-width="1.9" stroke-linecap="round"/>
</g>
</g>
</g>
<path style="mix-blend-mode:screen" d="M568.07 144.912C563.284 152.547 503.554 130.011 434.648 94.5699C365.742 59.129 313.769 24.2036 318.556 16.5688C323.342 8.93397 383.072 31.4702 451.978 66.9111C520.884 102.352 572.857 137.277 568.07 144.912Z" fill="url(#paint78_radial_3_196)"/>
<path d="M534.683 127.736C533.59 129.479 491.795 109.848 441.331 83.8909C390.866 57.9342 350.841 35.4798 351.934 33.7368C353.027 31.9938 394.822 51.625 445.286 77.5817C495.751 103.538 535.776 125.993 534.683 127.736Z" fill="url(#paint79_radial_3_196)"/>
<path style="mix-blend-mode:screen" d="M545.944 391.133C543.244 395.445 485.194 370.217 416.297 334.776C347.391 299.335 293.73 267.11 296.43 262.79C299.13 258.477 357.181 283.705 426.077 319.146C494.983 354.587 548.645 386.812 545.944 391.133Z" fill="url(#paint80_radial_3_196)"/>
<path d="M512.566 373.965C511.952 374.947 470.546 354.702 420.081 328.745C369.616 302.789 329.203 280.948 329.826 279.966C330.44 278.984 371.847 299.229 422.312 325.186C472.776 351.142 513.189 372.983 512.566 373.965Z" fill="url(#paint81_radial_3_196)"/>
<path style="mix-blend-mode:screen" d="M566.237 474.387C562.769 474.387 559.997 402.818 560.051 314.547C560.105 226.268 562.959 154.707 566.427 154.707C569.894 154.707 572.667 226.276 572.613 314.547C572.559 402.826 569.705 474.387 566.237 474.387Z" fill="url(#paint82_radial_3_196)"/>
<path d="M566.264 431.615C565.469 431.615 564.864 379.202 564.9 314.547C564.937 249.893 565.614 197.48 566.4 197.48C567.194 197.48 567.799 249.893 567.763 314.547C567.727 379.202 567.05 431.615 566.264 431.615Z" fill="url(#paint83_radial_3_196)"/>
<path style="mix-blend-mode:screen" d="M302.426 480.558C300.683 477.841 324.733 462.195 356.16 445.608C387.579 429.02 414.473 417.777 416.216 420.494C417.959 423.21 393.909 438.857 362.482 455.444C331.063 472.031 304.169 483.274 302.426 480.558Z" fill="url(#paint84_radial_3_196)"/>
<path d="M317.652 472.522C317.255 471.9 335.588 461.556 358.599 449.404C381.609 437.252 400.592 427.907 400.99 428.529C401.387 429.151 383.054 439.495 360.043 451.646C337.033 463.798 318.05 473.143 317.652 472.522Z" fill="url(#paint85_radial_3_196)"/>
<path style="mix-blend-mode:screen" opacity="0.7" d="M306.084 96.9758V182.211L298.995 178.152V93.4243L306.084 96.9758Z" fill="url(#paint86_linear_3_196)"/>
<path style="mix-blend-mode:screen" opacity="0.3" d="M299.645 164.462L305.398 166.9L203.285 220.917L198.011 217.815L299.645 164.462Z" fill="url(#paint87_linear_3_196)"/>
<path style="mix-blend-mode:screen" d="M305.407 105.642V166.9L299.654 164.462L299.853 102.802L305.416 105.642H305.407Z" fill="url(#paint88_linear_3_196)"/>
<path style="mix-blend-mode:screen" d="M204.144 159.012L305.398 105.511V166.769L203.286 220.786C204.144 179.862 204.424 159.274 204.144 159.012Z" fill="url(#paint89_linear_3_196)"/>
<path style="mix-blend-mode:screen" d="M203.286 220.786L198.012 217.684V155.788L204.144 159.02L203.286 220.794V220.786Z" fill="url(#paint90_linear_3_196)"/>
<path style="mix-blend-mode:screen" d="M198.011 155.779L299.844 102.663L305.407 105.503L204.152 159.004L198.021 155.771L198.011 155.779Z" fill="url(#paint91_linear_3_196)"/>
<path style="mix-blend-mode:screen" d="M241.224 174.584V178.266L220.905 188.831V184.854C220.724 185.017 227.497 181.589 241.224 174.584Z" fill="url(#paint92_linear_3_196)"/>
<path style="mix-blend-mode:screen" d="M266.366 161.696V165.476L246.047 176.041V172.064C245.866 172.227 252.639 168.766 266.366 161.696Z" fill="url(#paint93_linear_3_196)"/>
<path style="mix-blend-mode:screen" d="M288.935 150.068V153.75L268.615 164.314V160.337C268.434 160.501 275.208 157.072 288.935 150.068Z" fill="url(#paint94_linear_3_196)"/>
<path style="mix-blend-mode:screen" d="M203.999 167.547L271.74 132.27V140.927L203.999 176.466V167.547Z" fill="url(#paint95_linear_3_196)"/>
<path style="mix-blend-mode:screen" d="M296.99 154.364V162.891L221.401 203.209V193.904C221.212 193.904 246.408 180.721 296.99 154.364Z" fill="url(#paint96_linear_3_196)"/>
<g style="mix-blend-mode:screen">
<path style="mix-blend-mode:screen" d="M610.109 273.714C610.868 335.202 608.727 385.028 605.341 385.061C601.954 385.094 598.586 335.324 597.827 273.837C597.069 212.39 599.209 162.555 602.595 162.522C605.982 162.49 609.35 212.267 610.109 273.714Z" fill="url(#paint97_radial_3_196)"/>
</g>
<g style="mix-blend-mode:screen">
<path style="mix-blend-mode:screen" d="M207.106 188.642C207.341 207.349 205.679 222.512 203.412 222.537C201.145 222.561 199.113 207.431 198.888 188.732C198.662 170.042 200.314 154.879 202.581 154.855C204.848 154.83 206.88 169.96 207.115 188.651L207.106 188.642Z" fill="url(#paint98_radial_3_196)"/>
</g>
<g style="mix-blend-mode:screen">
<path style="mix-blend-mode:screen" d="M90.8056 351.74C90.6973 386.706 88.7647 415.027 86.4979 415.019C84.2312 415.011 82.4792 386.69 82.5875 351.723C82.6959 316.782 84.6285 288.46 86.8952 288.468C89.171 288.476 90.923 316.806 90.8056 351.748V351.74Z" fill="url(#paint99_radial_3_196)"/>
</g>
<g style="mix-blend-mode:screen">
<path style="mix-blend-mode:screen" d="M259.186 379.562C259.114 402.925 258.049 421.844 256.802 421.844C255.556 421.844 254.608 402.917 254.68 379.554C254.752 356.208 255.827 337.28 257.064 337.288C258.311 337.288 259.259 356.224 259.186 379.57V379.562Z" fill="url(#paint100_radial_3_196)"/>
</g>
<g style="mix-blend-mode:screen">
<path style="mix-blend-mode:screen" d="M447.643 436.917C450.759 447.85 443.498 458.987 431.442 461.81C419.386 464.625 407.085 458.062 403.97 447.13C400.854 436.205 408.115 425.06 420.171 422.245C432.237 419.422 444.528 425.993 447.643 436.917Z" fill="url(#paint101_radial_3_196)"/>
</g>
<g style="mix-blend-mode:screen">
<path style="mix-blend-mode:screen" d="M538.629 453.013C539.912 457.506 536.932 462.08 531.974 463.242C527.025 464.396 521.967 461.704 520.685 457.211C519.403 452.718 522.392 448.144 527.341 446.982C532.299 445.82 537.347 448.521 538.629 453.013Z" fill="url(#paint102_radial_3_196)"/>
</g>
<g style="mix-blend-mode:screen">
<path style="mix-blend-mode:screen" d="M581.4 365.307C582.276 368.376 580.235 371.502 576.848 372.295C573.462 373.089 570.012 371.24 569.136 368.171C568.26 365.103 570.301 361.977 573.678 361.191C577.065 360.397 580.515 362.247 581.391 365.307H581.4Z" fill="url(#paint103_radial_3_196)"/>
</g>
<g style="mix-blend-mode:screen">
<path style="mix-blend-mode:screen" d="M568.639 246.939C570.337 252.888 566.381 258.952 559.816 260.49C553.25 262.02 546.559 258.453 544.861 252.495C543.163 246.546 547.118 240.482 553.675 238.952C560.24 237.414 566.932 240.99 568.63 246.939H568.639Z" fill="url(#paint104_radial_3_196)"/>
</g>
<g style="mix-blend-mode:screen" opacity="0.6">
<path style="mix-blend-mode:screen" opacity="0.6" d="M58.0507 384.194L48.3695 388.989L36.837 384.963L46.5182 380.167L58.0507 384.194Z" fill="url(#paint105_linear_3_196)"/>
<path style="mix-blend-mode:screen" opacity="0.6" d="M40.6751 393.555L33.1434 398.98L20.1028 395.846L27.6345 390.421L40.6751 393.555Z" fill="url(#paint106_linear_3_196)"/>
<path style="mix-blend-mode:screen" opacity="0.6" d="M27.472 404.029L22.3244 409.913L8.17297 407.769L13.3206 401.885L27.472 404.029Z" fill="url(#paint107_linear_3_196)"/>
<path style="mix-blend-mode:screen" opacity="0.6" d="M18.8476 415.298L16.2377 421.468L1.40894 420.379L4.01888 414.209L18.8476 415.298Z" fill="url(#paint108_linear_3_196)"/>
<path style="mix-blend-mode:screen" opacity="0.6" d="M15.0545 427.024V433.284H0V427.024H15.0545Z" fill="url(#paint109_linear_3_196)"/>
<path style="mix-blend-mode:screen" opacity="0.6" d="M16.2196 438.84L18.8295 445.01L4.00081 446.099L1.39087 439.928L16.2196 438.84Z" fill="url(#paint110_linear_3_196)"/>
<path style="mix-blend-mode:screen" opacity="0.6" d="M22.2882 450.395L27.4359 456.278L13.2845 458.422L8.13684 452.539L22.2882 450.395Z" fill="url(#paint111_linear_3_196)"/>
<path style="mix-blend-mode:screen" opacity="0.6" d="M33.0982 461.335L40.6299 466.761L27.5893 469.895L20.0576 464.47L33.0982 461.335Z" fill="url(#paint112_linear_3_196)"/>
<path style="mix-blend-mode:screen" opacity="0.6" d="M48.3062 471.327L57.9873 476.122L46.4548 480.148L36.7737 475.353L48.3062 471.327Z" fill="url(#paint113_linear_3_196)"/>
<path style="mix-blend-mode:screen" opacity="0.6" d="M67.4517 480.067L78.9841 484.093L69.303 488.888L57.7705 484.862L67.4517 480.067Z" fill="url(#paint114_linear_3_196)"/>
<path style="mix-blend-mode:screen" opacity="0.6" d="M89.9658 487.292L103.006 490.427L95.4746 495.852L82.4341 492.718L89.9658 487.292Z" fill="url(#paint115_linear_3_196)"/>
<path style="mix-blend-mode:screen" opacity="0.6" d="M115.144 492.783L129.295 494.927L124.148 500.811L109.996 498.667L115.144 492.783Z" fill="url(#paint116_linear_3_196)"/>
<path style="mix-blend-mode:screen" opacity="0.6" d="M142.236 496.375L157.065 497.464L154.455 503.634L139.626 502.546L142.236 496.375Z" fill="url(#paint117_linear_3_196)"/>
<path style="mix-blend-mode:screen" opacity="0.6" d="M170.422 497.955H185.476V504.215H170.422V497.955Z" fill="url(#paint118_linear_3_196)"/>
</g>
<defs>
<linearGradient id="paint0_linear_3_196" x1="352.024" y1="412.892" x2="352.024" y2="341.699" gradientUnits="userSpaceOnUse">
<stop stop-color="#0F4863"/>
<stop offset="1" stop-color="#41BCE9"/>
</linearGradient>
<linearGradient id="paint1_linear_3_196" x1="352.024" y1="421.975" x2="352.024" y2="367.885" gradientUnits="userSpaceOnUse">
<stop stop-color="#41BCE9"/>
<stop offset="1" stop-color="#0F4863"/>
</linearGradient>
<linearGradient id="paint2_linear_3_196" x1="437.186" y1="421.975" x2="437.186" y2="386.133" gradientUnits="userSpaceOnUse">
<stop stop-color="#0F4863"/>
<stop offset="1" stop-color="#41BCE9"/>
</linearGradient>
<linearGradient id="paint3_linear_3_196" x1="617.623" y1="375.413" x2="617.623" y2="418.62" gradientUnits="userSpaceOnUse">
<stop stop-color="#020407"/>
<stop offset="1" stop-color="#41BCE9"/>
</linearGradient>
<linearGradient id="paint4_linear_3_196" x1="270.204" y1="-41.9237" x2="327.942" y2="21.7954" gradientUnits="userSpaceOnUse">
<stop stop-color="#020407"/>
<stop offset="1" stop-color="#41BCE9"/>
</linearGradient>
<linearGradient id="paint5_linear_3_196" x1="618.165" y1="184.338" x2="618.165" y2="417.883" gradientUnits="userSpaceOnUse">
<stop stop-color="#020407"/>
<stop offset="1" stop-color="#41BCE9"/>
</linearGradient>
<linearGradient id="paint6_linear_3_196" x1="302.987" y1="-2.23575" x2="606.425" y2="-2.23575" gradientUnits="userSpaceOnUse">
<stop stop-color="#020407"/>
<stop offset="1" stop-color="#41BCE9"/>
</linearGradient>
<linearGradient id="paint7_linear_3_196" x1="292.059" y1="468.864" x2="292.059" y2="-115.572" gradientUnits="userSpaceOnUse">
<stop stop-color="#020407"/>
<stop offset="1" stop-color="#41BCE9"/>
</linearGradient>
<linearGradient id="paint8_linear_3_196" x1="308.315" y1="396.362" x2="308.315" y2="28.6962" gradientUnits="userSpaceOnUse">
<stop stop-color="#0F4863"/>
<stop offset="1" stop-color="#41BCE9"/>
</linearGradient>
<linearGradient id="paint9_linear_3_196" x1="592.427" y1="183.193" x2="592.427" y2="140.968" gradientUnits="userSpaceOnUse">
<stop stop-color="#020407"/>
<stop offset="1" stop-color="#41BCE9"/>
</linearGradient>
<linearGradient id="paint10_linear_3_196" x1="290.524" y1="573.689" x2="290.524" y2="202.014" gradientUnits="userSpaceOnUse">
<stop stop-color="#0B4195"/>
<stop offset="1" stop-color="#41BCE9"/>
</linearGradient>
<linearGradient id="paint11_linear_3_196" x1="390.586" y1="395.38" x2="390.586" y2="313.14" gradientUnits="userSpaceOnUse">
<stop stop-color="#0F4863"/>
<stop offset="1" stop-color="#41BCE9"/>
</linearGradient>
<linearGradient id="paint12_linear_3_196" x1="390.586" y1="395.38" x2="390.586" y2="313.14" gradientUnits="userSpaceOnUse">
<stop stop-color="#0F4863"/>
<stop offset="1" stop-color="#41BCE9"/>
</linearGradient>
<linearGradient id="paint13_linear_3_196" x1="438.089" y1="395.38" x2="438.089" y2="337.689" gradientUnits="userSpaceOnUse">
<stop stop-color="#41BCE9"/>
<stop offset="1" stop-color="#020407"/>
</linearGradient>
<linearGradient id="paint14_linear_3_196" x1="390.405" y1="371.322" x2="390.405" y2="313.631" gradientUnits="userSpaceOnUse">
<stop stop-color="#020407"/>
<stop offset="1" stop-color="#41BCE9"/>
</linearGradient>
<linearGradient id="paint15_linear_3_196" x1="318.429" y1="280.817" x2="318.429" y2="160.035" gradientUnits="userSpaceOnUse">
<stop stop-color="#103A7B"/>
<stop offset="1" stop-color="#41BCE9"/>
</linearGradient>
<linearGradient id="paint16_linear_3_196" x1="318.881" y1="321.405" x2="318.881" y2="109.463" gradientUnits="userSpaceOnUse">
<stop stop-color="#103A7B"/>
<stop offset="0.3" stop-color="#103A7B" stop-opacity="0"/>
<stop offset="1" stop-color="#103A7B" stop-opacity="0.9"/>
</linearGradient>
<linearGradient id="paint17_linear_3_196" x1="325.563" y1="232.045" x2="325.563" y2="39.4976" gradientUnits="userSpaceOnUse">
<stop stop-color="#103A7B"/>
<stop offset="1" stop-color="#41BCE9"/>
</linearGradient>
<linearGradient id="paint18_linear_3_196" x1="326.105" y1="294.646" x2="326.105" y2="-34.6411" gradientUnits="userSpaceOnUse">
<stop stop-color="#103A7B"/>
<stop offset="0.3" stop-color="#103A7B" stop-opacity="0"/>
<stop offset="1" stop-color="#103A7B" stop-opacity="0.9"/>
</linearGradient>
<linearGradient id="paint19_linear_3_196" x1="431.315" y1="230.163" x2="360.141" y2="151.615" gradientUnits="userSpaceOnUse">
<stop stop-color="#020407"/>
<stop offset="1" stop-color="#41BCE9"/>
</linearGradient>
<linearGradient id="paint20_linear_3_196" x1="445.313" y1="500.205" x2="445.313" y2="37.5337" gradientUnits="userSpaceOnUse">
<stop stop-color="#0F4863"/>
<stop offset="1" stop-color="#41BCE9"/>
</linearGradient>
<linearGradient id="paint21_linear_3_196" x1="445.313" y1="500.205" x2="445.313" y2="37.5337" gradientUnits="userSpaceOnUse">
<stop stop-color="#0F4863"/>
<stop offset="1" stop-color="#41BCE9"/>
</linearGradient>
<linearGradient id="paint22_linear_3_196" x1="463.917" y1="206.269" x2="540.951" y2="206.269" gradientUnits="userSpaceOnUse">
<stop stop-color="#103A7B"/>
<stop offset="1" stop-color="#41BCE9"/>
</linearGradient>
<linearGradient id="paint23_linear_3_196" x1="463.917" y1="232.455" x2="540.951" y2="232.455" gradientUnits="userSpaceOnUse">
<stop stop-color="#103A7B"/>
<stop offset="1" stop-color="#41BCE9"/>
</linearGradient>
<linearGradient id="paint24_linear_3_196" x1="463.917" y1="258.64" x2="540.951" y2="258.64" gradientUnits="userSpaceOnUse">
<stop stop-color="#103A7B"/>
<stop offset="1" stop-color="#41BCE9"/>
</linearGradient>
<linearGradient id="paint25_linear_3_196" x1="505.64" y1="220.18" x2="540.951" y2="220.18" gradientUnits="userSpaceOnUse">
<stop stop-color="#103A7B"/>
<stop offset="1" stop-color="#41BCE9"/>
</linearGradient>
<linearGradient id="paint26_linear_3_196" x1="505.64" y1="390.633" x2="540.951" y2="390.633" gradientUnits="userSpaceOnUse">
<stop stop-color="#103A7B"/>
<stop offset="1" stop-color="#41BCE9"/>
</linearGradient>
<linearGradient id="paint27_linear_3_196" x1="463.917" y1="370.176" x2="499.318" y2="370.176" gradientUnits="userSpaceOnUse">
<stop stop-color="#103A7B"/>
<stop offset="1" stop-color="#41BCE9"/>
</linearGradient>
<linearGradient id="paint28_linear_3_196" x1="463.917" y1="285.399" x2="540.951" y2="285.399" gradientUnits="userSpaceOnUse">
<stop stop-color="#103A7B"/>
<stop offset="1" stop-color="#41BCE9"/>
</linearGradient>
<linearGradient id="paint29_linear_3_196" x1="463.917" y1="302.829" x2="540.951" y2="302.829" gradientUnits="userSpaceOnUse">
<stop stop-color="#103A7B"/>
<stop offset="1" stop-color="#41BCE9"/>
</linearGradient>
<linearGradient id="paint30_linear_3_196" x1="463.917" y1="379.668" x2="540.951" y2="379.668" gradientUnits="userSpaceOnUse">
<stop stop-color="#103A7B"/>
<stop offset="1" stop-color="#41BCE9"/>
</linearGradient>
<linearGradient id="paint31_linear_3_196" x1="390.405" y1="395.38" x2="390.405" y2="365.103" gradientUnits="userSpaceOnUse">
<stop stop-color="#0F4863"/>
<stop offset="1" stop-color="#41BCE9"/>
</linearGradient>
<linearGradient id="paint32_linear_3_196" x1="68.093" y1="233.355" x2="155.422" y2="233.355" gradientUnits="userSpaceOnUse">
<stop stop-color="#020407"/>
<stop offset="1" stop-color="#41BCE9"/>
</linearGradient>
<linearGradient id="paint33_linear_3_196" x1="87.5999" y1="243.257" x2="178.089" y2="243.257" gradientUnits="userSpaceOnUse">
<stop stop-color="#0F4863"/>
<stop offset="1" stop-color="#41BCE9"/>
</linearGradient>
<linearGradient id="paint34_linear_3_196" x1="64.4807" y1="395.216" x2="64.4807" y2="283.108" gradientUnits="userSpaceOnUse">
<stop stop-color="#020407"/>
<stop offset="1" stop-color="#41BCE9"/>
</linearGradient>
<linearGradient id="paint35_linear_3_196" x1="75.0469" y1="413.383" x2="75.0469" y2="284.172" gradientUnits="userSpaceOnUse">
<stop stop-color="#0F4863"/>
<stop offset="1" stop-color="#41BCE9"/>
</linearGradient>
<linearGradient id="paint36_linear_3_196" x1="150.094" y1="233.355" x2="178.089" y2="233.355" gradientUnits="userSpaceOnUse">
<stop stop-color="#0F4863"/>
<stop offset="1" stop-color="#41BCE9"/>
</linearGradient>
<linearGradient id="paint37_linear_3_196" x1="112.344" y1="416.492" x2="225.863" y2="416.492" gradientUnits="userSpaceOnUse">
<stop stop-color="#0F4863"/>
<stop offset="1" stop-color="#41BCE9"/>
</linearGradient>
<linearGradient id="paint38_linear_3_196" x1="184.863" y1="366.575" x2="225.863" y2="366.575" gradientUnits="userSpaceOnUse">
<stop stop-color="#0F4863"/>
<stop offset="1" stop-color="#41BCE9"/>
</linearGradient>
<linearGradient id="paint39_linear_3_196" x1="108.371" y1="457.98" x2="108.371" y2="369.849" gradientUnits="userSpaceOnUse">
<stop stop-color="#0F4863"/>
<stop offset="1" stop-color="#41BCE9"/>
</linearGradient>
<linearGradient id="paint40_linear_3_196" x1="124.085" y1="411.664" x2="137.36" y2="411.664" gradientUnits="userSpaceOnUse">
<stop stop-color="#0F4863"/>
<stop offset="1" stop-color="#41BCE9"/>
</linearGradient>
<linearGradient id="paint41_linear_3_196" x1="152.803" y1="388.179" x2="225.863" y2="388.179" gradientUnits="userSpaceOnUse">
<stop stop-color="#0F4863"/>
<stop offset="1" stop-color="#41BCE9"/>
</linearGradient>
<linearGradient id="paint42_linear_3_196" x1="177.999" y1="464.2" x2="177.999" y2="407.736" gradientUnits="userSpaceOnUse">
<stop stop-color="#0F4863"/>
<stop offset="1" stop-color="#41BCE9"/>
</linearGradient>
<linearGradient id="paint43_linear_3_196" x1="111.622" y1="366.575" x2="225.863" y2="366.575" gradientUnits="userSpaceOnUse">
<stop stop-color="#0F4863"/>
<stop offset="1" stop-color="#41BCE9"/>
</linearGradient>
<linearGradient id="paint44_linear_3_196" x1="124.265" y1="374.104" x2="212.046" y2="374.104" gradientUnits="userSpaceOnUse">
<stop stop-color="#0F4863"/>
<stop offset="1" stop-color="#41BCE9"/>
</linearGradient>
<linearGradient id="paint45_linear_3_196" x1="140.521" y1="382.86" x2="195.609" y2="382.86" gradientUnits="userSpaceOnUse">
<stop stop-color="#0F4863"/>
<stop offset="1" stop-color="#41BCE9"/>
</linearGradient>
<linearGradient id="paint46_linear_3_196" x1="188.475" y1="344.318" x2="336.852" y2="344.318" gradientUnits="userSpaceOnUse">
<stop stop-color="#0F4863"/>
<stop offset="1" stop-color="#41BCE9"/>
</linearGradient>
<linearGradient id="paint47_linear_3_196" x1="267.586" y1="260.032" x2="336.853" y2="260.032" gradientUnits="userSpaceOnUse">
<stop stop-color="#0F4863"/>
<stop offset="1" stop-color="#41BCE9"/>
</linearGradient>
<linearGradient id="paint48_linear_3_196" x1="183.959" y1="388.834" x2="183.959" y2="263.305" gradientUnits="userSpaceOnUse">
<stop stop-color="#0F4863"/>
<stop offset="1" stop-color="#41BCE9"/>
</linearGradient>
<linearGradient id="paint49_linear_3_196" x1="211.413" y1="313.877" x2="233.9" y2="313.877" gradientUnits="userSpaceOnUse">
<stop stop-color="#0F4863"/>
<stop offset="1" stop-color="#41BCE9"/>
</linearGradient>
<linearGradient id="paint50_linear_3_196" x1="256.839" y1="296.529" x2="336.852" y2="296.529" gradientUnits="userSpaceOnUse">
<stop stop-color="#0F4863"/>
<stop offset="1" stop-color="#41BCE9"/>
</linearGradient>
<linearGradient id="paint51_linear_3_196" x1="281.041" y1="410.192" x2="281.041" y2="314.777" gradientUnits="userSpaceOnUse">
<stop stop-color="#0F4863"/>
<stop offset="1" stop-color="#41BCE9"/>
</linearGradient>
<linearGradient id="paint52_linear_3_196" x1="187.572" y1="260.032" x2="336.853" y2="260.032" gradientUnits="userSpaceOnUse">
<stop stop-color="#0F4863"/>
<stop offset="1" stop-color="#41BCE9"/>
</linearGradient>
<linearGradient id="paint53_linear_3_196" x1="211.233" y1="272.798" x2="313.462" y2="272.798" gradientUnits="userSpaceOnUse">
<stop stop-color="#0F4863"/>
<stop offset="1" stop-color="#41BCE9"/>
</linearGradient>
<linearGradient id="paint54_linear_3_196" x1="215.206" y1="274.925" x2="308.225" y2="274.925" gradientUnits="userSpaceOnUse">
<stop stop-color="#0F4863"/>
<stop offset="1" stop-color="#41BCE9"/>
</linearGradient>
<linearGradient id="paint55_linear_3_196" x1="213.58" y1="465.018" x2="259.096" y2="465.018" gradientUnits="userSpaceOnUse">
<stop stop-color="#0F4863"/>
<stop offset="1" stop-color="#41BCE9"/>
</linearGradient>
<linearGradient id="paint56_linear_3_196" x1="254.129" y1="443.578" x2="310.392" y2="443.578" gradientUnits="userSpaceOnUse">
<stop stop-color="#0F4863"/>
<stop offset="1" stop-color="#41BCE9"/>
</linearGradient>
<linearGradient id="paint57_linear_3_196" x1="213.581" y1="445.46" x2="298.652" y2="445.46" gradientUnits="userSpaceOnUse">
<stop stop-color="#0F4863"/>
<stop offset="1" stop-color="#41BCE9"/>
</linearGradient>
<linearGradient id="paint58_linear_3_196" x1="259.096" y1="470.582" x2="298.652" y2="470.582" gradientUnits="userSpaceOnUse">
<stop stop-color="#0F4863"/>
<stop offset="1" stop-color="#41BCE9"/>
</linearGradient>
<linearGradient id="paint59_linear_3_196" x1="308.766" y1="419.52" x2="411.086" y2="419.52" gradientUnits="userSpaceOnUse">
<stop stop-color="#0F4863"/>
<stop offset="1" stop-color="#41BCE9"/>
</linearGradient>
<linearGradient id="paint60_linear_3_196" x1="213.219" y1="519.763" x2="258.735" y2="519.763" gradientUnits="userSpaceOnUse">
<stop stop-color="#020407"/>
<stop offset="1" stop-color="#41BCE9"/>
</linearGradient>
<linearGradient id="paint61_linear_3_196" x1="258.735" y1="523.691" x2="298.651" y2="523.691" gradientUnits="userSpaceOnUse">
<stop stop-color="#020407"/>
<stop offset="1" stop-color="#41BCE9"/>
</linearGradient>
<linearGradient id="paint62_linear_3_196" x1="212.226" y1="536.293" x2="212.226" y2="466.655" gradientUnits="userSpaceOnUse">
<stop stop-color="#103A7B"/>
<stop offset="1" stop-color="#41BCE9"/>
</linearGradient>
<linearGradient id="paint63_linear_3_196" x1="212.407" y1="558.96" x2="212.407" y2="439.896" gradientUnits="userSpaceOnUse">
<stop stop-color="#103A7B"/>
<stop offset="0.3" stop-color="#103A7B" stop-opacity="0"/>
<stop offset="1" stop-color="#103A7B" stop-opacity="0.9"/>
</linearGradient>
<linearGradient id="paint64_linear_3_196" x1="257.561" y1="523.445" x2="257.561" y2="494.232" gradientUnits="userSpaceOnUse">
<stop stop-color="#103A7B"/>
<stop offset="1" stop-color="#41BCE9"/>
</linearGradient>
<linearGradient id="paint65_linear_3_196" x1="257.741" y1="533.183" x2="257.741" y2="482.284" gradientUnits="userSpaceOnUse">
<stop stop-color="#103A7B"/>
<stop offset="0.3" stop-color="#103A7B" stop-opacity="0"/>
<stop offset="1" stop-color="#103A7B" stop-opacity="0.9"/>
</linearGradient>
<linearGradient id="paint66_linear_3_196" x1="353.921" y1="390.961" x2="411.086" y2="390.961" gradientUnits="userSpaceOnUse">
<stop stop-color="#0F4863"/>
<stop offset="1" stop-color="#41BCE9"/>
</linearGradient>
<linearGradient id="paint67_linear_3_196" x1="253.858" y1="391.206" x2="355.004" y2="391.206" gradientUnits="userSpaceOnUse">
<stop stop-color="#0F4863"/>
<stop offset="1" stop-color="#41BCE9"/>
</linearGradient>
<linearGradient id="paint68_linear_3_196" x1="253.858" y1="439.159" x2="411.447" y2="439.159" gradientUnits="userSpaceOnUse">
<stop stop-color="#0F4863"/>
<stop offset="1" stop-color="#41BCE9"/>
</linearGradient>
<linearGradient id="paint69_linear_3_196" x1="254.039" y1="391.125" x2="410.454" y2="391.125" gradientUnits="userSpaceOnUse">
<stop stop-color="#0F4863"/>
<stop offset="1" stop-color="#41BCE9"/>
</linearGradient>
<linearGradient id="paint70_linear_3_196" x1="383.181" y1="472.301" x2="408.919" y2="472.301" gradientUnits="userSpaceOnUse">
<stop stop-color="#020407"/>
<stop offset="1" stop-color="#41BCE9"/>
</linearGradient>
<linearGradient id="paint71_linear_3_196" x1="378.936" y1="470.091" x2="402.958" y2="470.091" gradientUnits="userSpaceOnUse">
<stop stop-color="#0F4863"/>
<stop offset="1" stop-color="#41BCE9"/>
</linearGradient>
<linearGradient id="paint72_linear_3_196" x1="321.59" y1="440.714" x2="347.328" y2="440.714" gradientUnits="userSpaceOnUse">
<stop stop-color="#0F4863"/>
<stop offset="1" stop-color="#41BCE9"/>
</linearGradient>
<linearGradient id="paint73_linear_3_196" x1="317.345" y1="438.505" x2="341.368" y2="438.505" gradientUnits="userSpaceOnUse">
<stop stop-color="#0F4863"/>
<stop offset="1" stop-color="#41BCE9"/>
</linearGradient>
<linearGradient id="paint74_linear_3_196" x1="226.404" y1="493.823" x2="252.233" y2="493.823" gradientUnits="userSpaceOnUse">
<stop stop-color="#0F4863"/>
<stop offset="1" stop-color="#41BCE9"/>
</linearGradient>
<linearGradient id="paint75_linear_3_196" x1="222.16" y1="491.613" x2="246.182" y2="491.613" gradientUnits="userSpaceOnUse">
<stop stop-color="#0F4863"/>
<stop offset="1" stop-color="#41BCE9"/>
</linearGradient>
<linearGradient id="paint76_linear_3_196" x1="273.817" y1="525.901" x2="299.555" y2="525.901" gradientUnits="userSpaceOnUse">
<stop stop-color="#020407"/>
<stop offset="1" stop-color="#41BCE9"/>
</linearGradient>
<linearGradient id="paint77_linear_3_196" x1="269.572" y1="523.691" x2="293.594" y2="523.691" gradientUnits="userSpaceOnUse">
<stop stop-color="#0F4863"/>
<stop offset="1" stop-color="#41BCE9"/>
</linearGradient>
<radialGradient id="paint78_radial_3_196" cx="0" cy="0" r="1" gradientUnits="userSpaceOnUse" gradientTransform="translate(443.327 80.7405) scale(138.534 125.528)">
<stop stop-color="#5BD0DA"/>
<stop offset="1" stop-color="#020407" stop-opacity="0"/>
</radialGradient>
<radialGradient id="paint79_radial_3_196" cx="0" cy="0" r="1" gradientUnits="userSpaceOnUse" gradientTransform="translate(443.327 80.7404) scale(103.675 93.9417)">
<stop stop-color="#5BD0DA"/>
<stop offset="1" stop-color="#020407" stop-opacity="0"/>
</radialGradient>
<radialGradient id="paint80_radial_3_196" cx="0" cy="0" r="1" gradientUnits="userSpaceOnUse" gradientTransform="translate(421.201 326.969) scale(140.521 127.329)">
<stop stop-color="#5BD0DA"/>
<stop offset="1" stop-color="#020407" stop-opacity="0"/>
</radialGradient>
<radialGradient id="paint81_radial_3_196" cx="0" cy="0" r="1" gradientUnits="userSpaceOnUse" gradientTransform="translate(421.201 326.97) scale(104.216 94.4327)">
<stop stop-color="#5BD0DA"/>
<stop offset="1" stop-color="#020407"/>
</radialGradient>
<radialGradient id="paint82_radial_3_196" cx="0" cy="0" r="1" gradientUnits="userSpaceOnUse" gradientTransform="translate(566.327 314.531) scale(176.194 159.652)">
<stop stop-color="#5BD0DA"/>
<stop offset="1" stop-color="#020407" stop-opacity="0"/>
</radialGradient>
<radialGradient id="paint83_radial_3_196" cx="0" cy="0" r="1" gradientUnits="userSpaceOnUse" gradientTransform="translate(566.327 314.531) scale(129.683 117.509)">
<stop stop-color="#5BD0DA"/>
<stop offset="1" stop-color="#020407"/>
</radialGradient>
<radialGradient id="paint84_radial_3_196" cx="0" cy="0" r="1" gradientUnits="userSpaceOnUse" gradientTransform="translate(359.339 450.534) scale(63.9387 57.9362)">
<stop stop-color="#5BD0DA"/>
<stop offset="1" stop-color="#020407" stop-opacity="0"/>
</radialGradient>
<radialGradient id="paint85_radial_3_196" cx="0" cy="0" r="1" gradientUnits="userSpaceOnUse" gradientTransform="translate(359.339 450.534) scale(47.6831 43.2066)">
<stop stop-color="#5BD0DA"/>
<stop offset="1" stop-color="#020407" stop-opacity="0"/>
</radialGradient>
<linearGradient id="paint86_linear_3_196" x1="295.401" y1="182.211" x2="295.401" y2="93.4243" gradientUnits="userSpaceOnUse">
<stop stop-color="#0F4863"/>
<stop offset="1" stop-color="#41BCE9"/>
</linearGradient>
<linearGradient id="paint87_linear_3_196" x1="198.048" y1="161.18" x2="305.425" y2="161.18" gradientUnits="userSpaceOnUse">
<stop stop-color="#0F4863"/>
<stop offset="1" stop-color="#41BCE9"/>
</linearGradient>
<linearGradient id="paint88_linear_3_196" x1="299.645" y1="99.5617" x2="305.425" y2="99.5617" gradientUnits="userSpaceOnUse">
<stop stop-color="#0F4863"/>
<stop offset="1" stop-color="#41BCE9"/>
</linearGradient>
<linearGradient id="paint89_linear_3_196" x1="203.286" y1="102.262" x2="305.425" y2="102.262" gradientUnits="userSpaceOnUse">
<stop stop-color="#0F4863"/>
<stop offset="1" stop-color="#41BCE9"/>
</linearGradient>
<linearGradient id="paint90_linear_3_196" x1="194.435" y1="220.753" x2="194.435" y2="155.779" gradientUnits="userSpaceOnUse">
<stop stop-color="#0F4863"/>
<stop offset="1" stop-color="#41BCE9"/>
</linearGradient>
<linearGradient id="paint91_linear_3_196" x1="198.048" y1="99.398" x2="305.425" y2="99.398" gradientUnits="userSpaceOnUse">
<stop stop-color="#0F4863"/>
<stop offset="1" stop-color="#41BCE9"/>
</linearGradient>
<linearGradient id="paint92_linear_3_196" x1="217.374" y1="188.839" x2="217.374" y2="174.6" gradientUnits="userSpaceOnUse">
<stop stop-color="#125270"/>
<stop offset="1" stop-color="#41BCE9"/>
</linearGradient>
<linearGradient id="paint93_linear_3_196" x1="242.48" y1="176.073" x2="242.48" y2="161.671" gradientUnits="userSpaceOnUse">
<stop stop-color="#125270"/>
<stop offset="1" stop-color="#41BCE9"/>
</linearGradient>
<linearGradient id="paint94_linear_3_196" x1="265.057" y1="164.29" x2="265.057" y2="150.051" gradientUnits="userSpaceOnUse">
<stop stop-color="#125270"/>
<stop offset="1" stop-color="#41BCE9"/>
</linearGradient>
<linearGradient id="paint95_linear_3_196" x1="204.008" y1="129.021" x2="271.74" y2="129.021" gradientUnits="userSpaceOnUse">
<stop stop-color="#125270"/>
<stop offset="1" stop-color="#41BCE9"/>
</linearGradient>
<linearGradient id="paint96_linear_3_196" x1="221.709" y1="151.115" x2="297.026" y2="151.115" gradientUnits="userSpaceOnUse">
<stop stop-color="#125270"/>
<stop offset="1" stop-color="#41BCE9"/>
</linearGradient>
<radialGradient id="paint97_radial_3_196" cx="0" cy="0" r="1" gradientUnits="userSpaceOnUse" gradientTransform="translate(603.986 273.779) scale(5.59911 5.07351)">
<stop stop-color="white"/>
<stop offset="0.3" stop-color="#298FCD"/>
<stop offset="1" stop-color="#020407"/>
</radialGradient>
<radialGradient id="paint98_radial_3_196" cx="0" cy="0" r="1" gradientUnits="userSpaceOnUse" gradientTransform="translate(203.015 188.675) scale(3.88331 3.51873)">
<stop stop-color="white"/>
<stop offset="0.3" stop-color="#298FCD"/>
<stop offset="1" stop-color="#020407"/>
</radialGradient>
<radialGradient id="paint99_radial_3_196" cx="0" cy="0" r="1" gradientUnits="userSpaceOnUse" gradientTransform="translate(86.6966 351.764) scale(3.97359 3.60055)">
<stop stop-color="white"/>
<stop offset="0.3" stop-color="#298FCD"/>
<stop offset="1" stop-color="#020407"/>
</radialGradient>
<radialGradient id="paint100_radial_3_196" cx="0" cy="0" r="1" gradientUnits="userSpaceOnUse" gradientTransform="translate(256.929 379.587) scale(2.16739 1.96394)">
<stop stop-color="white"/>
<stop offset="0.3" stop-color="#298FCD"/>
<stop offset="1" stop-color="#020407"/>
</radialGradient>
<radialGradient id="paint101_radial_3_196" cx="0" cy="0" r="1" gradientUnits="userSpaceOnUse" gradientTransform="translate(425.807 442.023) scale(20.4099 18.4938)">
<stop stop-color="white"/>
<stop offset="0.3" stop-color="#298FCD"/>
<stop offset="1" stop-color="#020407"/>
</radialGradient>
<radialGradient id="paint102_radial_3_196" cx="0" cy="0" r="1" gradientUnits="userSpaceOnUse" gradientTransform="translate(529.662 455.116) scale(8.39871 7.61032)">
<stop stop-color="white"/>
<stop offset="0.3" stop-color="#298FCD"/>
<stop offset="1" stop-color="#020407"/>
</radialGradient>
<radialGradient id="paint103_radial_3_196" cx="0" cy="0" r="1" gradientUnits="userSpaceOnUse" gradientTransform="translate(575.268 366.739) scale(5.68946 5.15535)">
<stop stop-color="white"/>
<stop offset="0.3" stop-color="#298FCD"/>
<stop offset="1" stop-color="#020407"/>
</radialGradient>
<radialGradient id="paint104_radial_3_196" cx="0" cy="0" r="1" gradientUnits="userSpaceOnUse" gradientTransform="translate(556.754 249.721) scale(11.108 10.0652)">
<stop stop-color="white"/>
<stop offset="0.3" stop-color="#298FCD"/>
<stop offset="1" stop-color="#020407"/>
</radialGradient>
<linearGradient id="paint105_linear_3_196" x1="0.0902352" y1="400.453" x2="446.104" y2="116.158" gradientUnits="userSpaceOnUse">
<stop stop-color="#0F4863"/>
<stop offset="1" stop-color="#41BCE9"/>
</linearGradient>
<linearGradient id="paint106_linear_3_196" x1="-41.0001" y1="422.548" x2="432.694" y2="120.759" gradientUnits="userSpaceOnUse">
<stop stop-color="#0F4863"/>
<stop offset="1" stop-color="#41BCE9"/>
</linearGradient>
<linearGradient id="paint107_linear_3_196" x1="-82.6326" y1="448.325" x2="422.145" y2="126.69" gradientUnits="userSpaceOnUse">
<stop stop-color="#0F4863"/>
<stop offset="1" stop-color="#41BCE9"/>
</linearGradient>
<linearGradient id="paint108_linear_3_196" x1="-125.349" y1="478.111" x2="417.536" y2="132.184" gradientUnits="userSpaceOnUse">
<stop stop-color="#0F4863"/>
<stop offset="1" stop-color="#41BCE9"/>
</linearGradient>
<linearGradient id="paint109_linear_3_196" x1="-146.03" y1="499.632" x2="362.344" y2="175.724" gradientUnits="userSpaceOnUse">
<stop stop-color="#0F4863"/>
<stop offset="1" stop-color="#41BCE9"/>
</linearGradient>
<linearGradient id="paint110_linear_3_196" x1="-130.948" y1="505.361" x2="265.499" y2="252.811" gradientUnits="userSpaceOnUse">
<stop stop-color="#0F4863"/>
<stop offset="1" stop-color="#41BCE9"/>
</linearGradient>
<linearGradient id="paint111_linear_3_196" x1="-130.677" y1="521.4" x2="235.621" y2="288.039" gradientUnits="userSpaceOnUse">
<stop stop-color="#0F4863"/>
<stop offset="1" stop-color="#41BCE9"/>
</linearGradient>
<linearGradient id="paint112_linear_3_196" x1="-146.571" y1="547.831" x2="247.556" y2="296.704" gradientUnits="userSpaceOnUse">
<stop stop-color="#0F4863"/>
<stop offset="1" stop-color="#41BCE9"/>
</linearGradient>
<linearGradient id="paint113_linear_3_196" x1="-157.319" y1="573.117" x2="262.759" y2="305.449" gradientUnits="userSpaceOnUse">
<stop stop-color="#0F4863"/>
<stop offset="1" stop-color="#41BCE9"/>
</linearGradient>
<linearGradient id="paint114_linear_3_196" x1="-163.279" y1="596.765" x2="282.732" y2="312.468" gradientUnits="userSpaceOnUse">
<stop stop-color="#0F4863"/>
<stop offset="1" stop-color="#41BCE9"/>
</linearGradient>
<linearGradient id="paint115_linear_3_196" x1="-165.716" y1="617.305" x2="307.884" y2="315.52" gradientUnits="userSpaceOnUse">
<stop stop-color="#0F4863"/>
<stop offset="1" stop-color="#41BCE9"/>
</linearGradient>
<linearGradient id="paint116_linear_3_196" x1="-164.994" y1="635.554" x2="339.876" y2="313.915" gradientUnits="userSpaceOnUse">
<stop stop-color="#0F4863"/>
<stop offset="1" stop-color="#41BCE9"/>
</linearGradient>
<linearGradient id="paint117_linear_3_196" x1="-162.737" y1="652.166" x2="380.151" y2="306.24" gradientUnits="userSpaceOnUse">
<stop stop-color="#0F4863"/>
<stop offset="1" stop-color="#41BCE9"/>
</linearGradient>
<linearGradient id="paint118_linear_3_196" x1="-114.06" y1="642.999" x2="394.314" y2="319.091" gradientUnits="userSpaceOnUse">
<stop stop-color="#0F4863"/>
<stop offset="1" stop-color="#41BCE9"/>
</linearGradient>
</defs>
</svg>
