<svg width="39" height="39" viewBox="0 0 39 39" fill="none" xmlns="http://www.w3.org/2000/svg">
<path fill-rule="evenodd" clip-rule="evenodd" d="M11.7925 14.9954C11.7925 14.121 12.5014 13.4121 13.3758 13.4121H26.0425C26.9169 13.4121 27.6258 14.121 27.6258 14.9954C27.6258 15.8699 26.9169 16.5788 26.0425 16.5788H13.3758C12.5014 16.5788 11.7925 15.8699 11.7925 14.9954Z" fill="white"/>
<path fill-rule="evenodd" clip-rule="evenodd" d="M11.7925 21.3287C11.7925 20.4542 12.5014 19.7454 13.3758 19.7454H19.7091C20.5836 19.7454 21.2925 20.4542 21.2925 21.3287C21.2925 22.2031 20.5836 22.912 19.7091 22.912H13.3758C12.5014 22.912 11.7925 22.2031 11.7925 21.3287Z" fill="white"/>
<path fill-rule="evenodd" clip-rule="evenodd" d="M11.3487 28.396C11.9178 27.9217 12.6352 27.662 13.376 27.662H30.7926C31.6671 27.662 32.376 26.9531 32.376 26.0787V10.2454C32.376 9.37091 31.6671 8.66203 30.7926 8.66203H8.62598C7.75153 8.66203 7.04264 9.37091 7.04264 10.2454V31.9844L11.3487 28.396ZM13.376 30.8287H30.7926C33.416 30.8287 35.5426 28.702 35.5426 26.0787V10.2454C35.5426 7.62201 33.416 5.49536 30.7926 5.49536H8.62598C6.00262 5.49536 3.87598 7.62201 3.87598 10.2454V31.9844C3.87598 34.6692 7.00735 36.1359 9.06989 34.4171L13.376 30.8287Z" fill="white"/>
</svg>
